#tb 0: 1/25
0,          0,          0,        1,   149760, 0x92b5107a
0,          1,          1,        1,   149760, 0x97eb31ef
0,          2,          2,        1,   149760, 0xeb743e30
0,          3,          3,        1,   149760, 0x5fc53434
0,          4,          4,        1,   149760, 0x75fb1d63
0,          5,          5,        1,   149760, 0xba0aeb27
0,          6,          6,        1,   149760, 0x3f0f1780
0,          7,          7,        1,   149760, 0xf5d0f052
0,          8,          8,        1,   149760, 0x598ee54e
0,          9,          9,        1,   149760, 0x09fcf908
0,         10,         10,        1,   149760, 0x68209041
0,         11,         11,        1,   149760, 0x05f519e9
0,         12,         12,        1,   149760, 0xfdecf9b3
0,         13,         13,        1,   149760, 0x40c96df8
0,         14,         14,        1,   149760, 0x4b3d1b7b
0,         15,         15,        1,   149760, 0xc0691cd9
